<?xml version="1.0" encoding="UTF-8" standalone="no"?>
<!-- Generator: Adobe Illustrator 27.0.0, SVG Export Plug-In . SVG Version: 6.00 Build 0)  -->

<svg
   version="1.1"
   id="Layer_1"
   x="0px"
   y="0px"
   viewBox="0 0 490.00001 108.6"
   xml:space="preserve"
   sodipodi:docname="lingodb-black-title"
   width="490"
   height="108.6"
   inkscape:version="1.2.2 (732a01da63, 2022-12-09, custom)"
   xmlns:inkscape="http://www.inkscape.org/namespaces/inkscape"
   xmlns:sodipodi="http://sodipodi.sourceforge.net/DTD/sodipodi-0.dtd"
   xmlns="http://www.w3.org/2000/svg"
   xmlns:svg="http://www.w3.org/2000/svg"><defs
   id="defs147" /><sodipodi:namedview
   id="namedview145"
   pagecolor="#ffffff"
   bordercolor="#000000"
   borderopacity="0.25"
   inkscape:showpageshadow="2"
   inkscape:pageopacity="0.0"
   inkscape:pagecheckerboard="0"
   inkscape:deskcolor="#d1d1d1"
   showgrid="false"
   inkscape:zoom="4.3577348"
   inkscape:cx="311.85927"
   inkscape:cy="55.648177"
   inkscape:window-width="3766"
   inkscape:window-height="2096"
   inkscape:window-x="74"
   inkscape:window-y="502"
   inkscape:window-maximized="1"
   inkscape:current-layer="Layer_1" />
<path
   d="m 52.5,70.766 v 16.2 c 25.4,-0.1 50.9,-7.4 52.6,-20.3 v -16.6 c -2.3,14 -27.4,20.9 -52.6,20.7 z"
   id="path132" />
<path
   d="m 52.5,92.4 v 16.2 c 25.3,-0.5 50.8,-8.338 52.6,-21.238 v -16.6 C 102.8,84.662 77.5,92.1 52.5,92.4 Z"
   id="path134" />
<path
   d="m 51.62,82.328 c -5.091,0.316 -7.642,-3.89 -7.642,-3.89 0,0 0.374,-0.332 0.807,-1.17 -1.991,-1.041 -2.968,-3.169 -2.968,-3.169 -1.793,5.063 0.25,10.414 2.447,12.743 2.521,2.603 6.975,5.55 11.83,2.344 -6.902,0.263 -8.712,-4.706 -8.712,-4.706 0,0 3.221,0.139 4.238,-2.152 z"
   id="path136" />
<path
   d="m 68.9,48.7 c -3.4,7.1 -11,11.8 -16.3,14.4 v 2.3 C 78,65.3 103.4,58.2 105.1,45.6 V 29.3 C 103.3,40 87.6,46.4 68.9,48.7 Z"
   id="path138" />
<path
   d="M 42.9,92.2 C 37.5,82.1 24.6,75.5 21.4,71 c -2,-2.8 -1.2,-5.4 0.3,-6.8 1.6,-1.4 4.5,-1.5 6.5,0 1.8,1.4 5.1,5 5.8,6.3 0.7,1.3 0.6,2.3 1,3.2 0.4,1 1.5,1.6 3.2,1.2 1.5,-0.3 2.4,-0.8 2.4,-0.8 0,0 -1.7,-0.1 -2.2,-1.1 0,0 -1.8,-5 -2.4,-7 2.4,0.9 4,1.8 5,2.6 0,1.1 -0.6,2.9 -0.6,2.9 0.1,0 0.9,-0.4 2.2,-1.5 0.1,0.1 0.1,0.1 0.2,0.2 0.4,0.4 -0.6,3 -0.6,3 0,0 1.5,-0.9 2.8,-2.1 1.1,-1.1 2,-2.5 2,-2.5 0,0 -3.1,-1.6 -4.3,-4 -1.3,-2.4 0.2,-4.9 0.2,-4.9 0,0 -2.4,-1 -4.2,-4.1 -1.9,-3.3 -0.7,-7 -0.7,-7 -1.8,0.6 -3.6,3.9 -3.6,3.9 0,0 -4.2,-2.7 -10,-2.5 -5.2,-0.4 -9.7,-4 -11.3,-9.1 0,0 -2.1,6.7 3.4,11.4 -0.3,0.2 -0.7,0.4 -1,0.6 -3,1.4 -6.6,1 -9.3,-1.2 0,0 0.1,1 0.5,2.3 0.4,1.3 1.3,2.8 2.8,3.7 0.2,0.1 0.3,0.2 0.5,0.3 -0.4,0.5 -0.7,1 -1,1.6 -1.8,2.5 -5,3.6 -8,2.5 0,0 1.3,3 4.1,3.6 0.6,0.1 1.2,0.1 1.7,-0.1 -0.1,1.2 -0.2,2.3 -0.1,3.4 -0.3,2.3 -2,4.2 -4.3,4.7 0,0 2.1,1.5 4.2,0.8 0.4,-0.1 0.7,-0.3 1,-0.6 0.203,0.656 0.443,1.302 0.701,1.943 0.154,0.56 0.325,1.078 0.499,1.657 0.3,2.3 -0.9,4.9 -3.1,6 0,0 2.4,0.9 4.3,-0.3 0.308,-0.154 1.143,-0.841 1.56,-1.605 0.701,0.932 1.481,1.846 2.35,2.742 0.03,0.054 0.06,0.109 0.09,0.163 0.8,2.2 0,4.8 -1.9,6.3 0,0 2.5,0.4 4.1,-1.1 0.27,-0.27 1.022,-1.271 1.169,-2.125 1.237,1.083 2.444,2.12 3.577,3.137 0.016,0.028 0.03,0.052 0.054,0.088 0.9,2.1 0.2,5.4 -1.6,6.9 0,0 2.5,0.3 4,-1.4 0.224,-0.224 0.892,-1.06 1.218,-1.969 1.467,1.665 2.592,3.379 3.192,5.269 -0.006,0.051 -0.01,0.113 -0.01,0.2 -0.4,2.3 -2.4,4.5 -4.7,4.8 0,0 2,1.6 4.1,1 0.259,-0.065 0.609,-0.179 1.009,-0.355 -0.033,0.502 -0.07,0.989 -0.109,1.455 5.1,1 10.5,1.6 16.1,1.9 0.4,-1.5 0.6,-2.6 0.8,-3.3 0.3,-1.7 0.7,-3.8 0.4,-6.4 -0.5,-2.4 -1.4,-4.7 -2.5,-6.7 z m -7.2,-32.7 2.6,3.9 -4.8,-2.9 z"
   id="path140" />
<path
   d="M 104.8,21.6 C 104.8,9.671 81.385,0 52.5,0 23.615,0 0.2,9.671 0.2,21.6 c 0,11.929 23.415,21.6 52.3,21.6 1.306,0 2.596,-0.026 3.878,-0.065 C 56.548,53.987 46,62.8 46,62.8 46,62.8 66.521,55.982 67.739,42.266 89.189,39.571 104.8,31.34 104.8,21.6 Z"
   id="path142" />
<text
   xml:space="preserve"
   style="font-size:85.3333px;fill:#000000"
   x="134.92125"
   y="83.86895"
   id="text307"><tspan
     sodipodi:role="line"
     id="tspan305"
     x="134.92125"
     y="83.86895"
     style="font-size:85.3333px">LingoDB</tspan></text></svg>
